<?xml version="1.0" standalone="no"?>
<!DOCTYPE svg PUBLIC "-//W3C//DTD SVG 20010904//EN"
 "http://www.w3.org/TR/2001/REC-SVG-20010904/DTD/svg10.dtd">
<svg version="1.0" xmlns="http://www.w3.org/2000/svg"
 width="894.000000pt" height="893.000000pt" viewBox="0 0 894.000000 893.000000"
 preserveAspectRatio="xMidYMid meet">

<g transform="translate(0.000000,893.000000) scale(0.100000,-0.100000)"
fill="#000000" stroke="none">
<path d="M4250 8793 c-513 -48 -878 -129 -1280 -284 -344 -132 -635 -286 -948
-501 -183 -125 -181 -96 -19 -254 l137 -134 105 72 c576 399 1198 627 1913
703 75 8 158 15 185 15 l47 0 0 195 0 195 -52 -2 c-29 0 -69 -3 -88 -5z"/>
<path d="M4887 8784 c-10 -10 -9 -384 1 -384 21 0 243 -31 357 -50 221 -37
564 -134 760 -214 l60 -25 107 162 c59 89 104 165 100 169 -13 13 -257 105
-389 147 -278 88 -633 164 -868 186 -38 3 -81 8 -95 11 -14 3 -29 2 -33 -2z"/>
<path d="M4300 8103 c-406 -31 -759 -111 -1127 -256 -84 -33 -153 -63 -153
-66 0 -3 70 -78 154 -166 l153 -160 154 52 c262 88 502 137 832 168 l67 7 0
31 c1 18 3 114 6 215 l6 182 -23 -2 c-13 -1 -44 -3 -69 -5z"/>
<path d="M4877 7983 c-4 -58 -7 -154 -7 -212 l0 -106 138 -17 c503 -64 1055
-290 1483 -609 210 -157 359 -293 508 -464 439 -506 695 -1066 796 -1745 21
-139 30 -520 17 -690 l-11 -135 32 -34 c18 -18 99 -96 181 -174 110 -104 150
-137 156 -126 9 16 43 218 61 364 16 130 16 588 0 730 -98 860 -441 1602
-1025 2213 -521 545 -1225 923 -1998 1073 -72 13 -265 39 -298 39 l-27 0 -6
-107z"/>
<path d="M2463 7472 c-371 -250 -724 -600 -976 -968 l-77 -112 68 -39 c124
-74 257 -150 279 -162 20 -10 27 -4 94 91 166 236 402 491 604 654 112 90 300
224 388 275 31 18 57 37 57 41 0 9 -290 308 -299 308 -4 0 -66 -40 -138 -88z"/>
<path d="M4410 7553 c-316 -18 -579 -66 -849 -155 l-123 -40 68 -69 69 -69 45
16 c102 36 356 94 500 116 225 33 616 33 840 -1 1042 -154 1908 -820 2319
-1781 127 -295 207 -617 228 -910 13 -168 7 -473 -11 -625 -52 -446 -221 -901
-473 -1278 -126 -188 -224 -308 -378 -462 -140 -140 -244 -227 -397 -333 -53
-37 -97 -70 -98 -74 0 -4 19 -39 42 -77 l41 -70 96 66 c148 102 275 206 410
337 529 517 849 1177 937 1935 20 172 14 593 -10 745 -29 174 -67 347 -107
481 -270 900 -916 1622 -1789 2001 -171 74 -450 158 -655 198 -165 32 -545 59
-705 49z"/>
<path d="M1158 7213 c-268 -324 -491 -689 -656 -1069 l-39 -90 76 -40 c91 -47
211 -124 230 -147 7 -9 17 -17 21 -17 5 0 20 31 34 68 39 102 205 432 279 553
105 174 243 369 344 485 l52 60 -138 138 -138 138 -65 -79z"/>
<path d="M7801 7056 c-86 -86 -132 -139 -127 -148 3 -7 42 -60 85 -118 365
-481 621 -1081 735 -1720 50 -276 67 -771 38 -1050 -74 -696 -295 -1309 -673
-1869 -152 -224 -415 -535 -563 -665 l-68 -59 134 -134 c73 -73 138 -133 144
-133 16 0 295 288 389 400 340 409 582 825 767 1320 28 74 59 162 68 195 10
33 30 101 45 150 43 146 104 456 125 634 45 384 46 678 4 1051 -81 718 -349
1422 -771 2023 -74 106 -190 257 -196 257 -1 0 -62 -60 -136 -134z"/>
<path d="M2880 7083 c-637 -399 -1108 -1001 -1339 -1713 -43 -133 -90 -327
-115 -475 -47 -273 -47 -715 0 -990 33 -191 110 -492 134 -518 4 -5 41 6 83
23 74 32 75 33 66 59 -17 41 -75 268 -93 356 -85 421 -70 907 41 1325 204 775
694 1423 1381 1825 l82 48 -57 62 c-32 35 -62 63 -68 63 -5 1 -57 -29 -115
-65z"/>
<path d="M1190 5987 c-262 -554 -385 -1175 -350 -1774 22 -377 68 -625 186
-995 9 -27 20 -48 25 -48 5 0 66 23 136 51 71 29 154 61 185 73 31 12 59 24
62 27 3 3 -6 39 -20 80 -34 100 -101 385 -118 506 -41 280 -45 627 -12 906 40
330 147 691 298 1009 28 60 49 110 47 112 -6 6 -309 156 -345 171 l-32 13 -62
-131z"/>
<path d="M4657 5500 l-448 -5 227 -370 c307 -500 328 -535 334 -535 3 0 28 37
56 83 54 86 186 296 321 508 l81 127 -50 88 c-27 49 -54 94 -61 99 -8 7 -169
8 -460 5z"/>
<path d="M3949 5493 l-66 -4 -227 -387 c-179 -306 -223 -387 -209 -389 10 -1
264 -4 565 -6 l547 -3 -28 50 c-143 253 -250 442 -281 496 -21 36 -61 107 -90
158 l-52 92 -47 -2 c-25 -1 -76 -3 -112 -5z"/>
<path d="M4977 4753 l-275 -458 439 -9 c242 -5 442 -7 444 -4 2 2 29 56 58
119 l54 115 -110 174 c-239 378 -329 520 -332 520 -1 0 -127 -206 -278 -457z"/>
<path d="M144 4563 c-9 -211 8 -531 41 -765 30 -205 36 -238 81 -428 32 -134
141 -490 150 -490 12 0 342 135 351 144 1 1 -16 56 -38 121 -60 180 -127 462
-154 648 -38 262 -48 423 -43 691 l4 246 -192 0 -192 0 -8 -167z"/>
<path d="M3345 4549 l-36 -71 54 -91 c30 -51 87 -148 127 -217 40 -69 85 -145
100 -170 15 -25 57 -98 95 -162 37 -65 71 -118 75 -118 8 0 93 146 370 635 53
94 109 191 124 218 l28 47 -451 0 -451 0 -35 -71z"/>
<path d="M4090 4083 c-84 -148 -167 -293 -185 -323 -17 -30 -42 -74 -55 -96
l-22 -42 47 -87 48 -88 431 7 c237 4 432 9 434 11 1 1 -66 117 -151 256 -84
140 -204 338 -266 442 -62 103 -117 187 -121 187 -4 0 -76 -120 -160 -267z"/>
<path d="M4457 4196 c4 -7 116 -176 248 -375 l240 -362 89 3 90 3 208 355
c115 195 213 363 219 373 9 16 -20 17 -546 17 -470 0 -555 -2 -548 -14z"/>
<path d="M7616 3262 c-193 -532 -546 -1027 -994 -1395 -183 -150 -317 -239
-537 -359 -334 -182 -705 -301 -1142 -364 -167 -25 -639 -25 -806 0 -534 78
-947 228 -1376 501 -427 272 -840 709 -1076 1139 -20 36 -43 66 -50 66 -7 0
-41 -13 -76 -29 -35 -16 -116 -52 -179 -80 -63 -28 -116 -55 -118 -60 -10 -30
210 -372 386 -601 87 -112 452 -477 572 -571 144 -113 253 -189 395 -276 512
-312 1088 -493 1701 -534 473 -32 1006 45 1472 211 959 342 1745 1078 2150
2012 l60 137 -82 78 c-92 89 -251 233 -257 233 -2 0 -22 -49 -43 -108z"/>
<path d="M1833 2940 c-35 -16 -63 -32 -63 -35 0 -14 77 -145 143 -245 98 -146
170 -240 280 -361 527 -584 1215 -938 2007 -1034 163 -20 505 -20 675 0 174
20 408 68 563 115 126 38 242 78 242 85 0 1 -16 37 -36 78 l-35 75 -130 -43
c-161 -54 -402 -109 -574 -131 -176 -22 -543 -22 -725 0 -517 63 -1032 272
-1448 588 -284 217 -577 546 -755 851 -30 50 -58 87 -67 86 -8 0 -43 -13 -77
-29z"/>
<path d="M935 2528 c-22 -12 -69 -33 -105 -48 -36 -15 -96 -42 -133 -59 l-69
-31 48 -87 c113 -209 276 -455 418 -633 81 -102 246 -290 254 -290 4 0 68 60
141 134 l134 134 -54 59 c-184 196 -408 510 -548 766 -23 42 -43 77 -44 77 -1
-1 -20 -10 -42 -22z"/>
<path d="M6530 919 c-407 -232 -867 -396 -1345 -478 -277 -48 -781 -61 -1080
-27 -307 34 -682 122 -958 226 -112 42 -298 120 -347 145 l-29 15 -120 -155
-121 -155 93 -46 c381 -192 920 -352 1352 -403 438 -52 668 -53 1085 -6 495
56 1013 213 1473 447 118 60 317 174 333 191 9 9 -16 46 -106 155 -64 78 -119
145 -121 147 -3 2 -52 -23 -109 -56z"/>
</g>
</svg>
