<?xml version="1.0" encoding="UTF-8"?> <svg xmlns="http://www.w3.org/2000/svg" xmlns:xlink="http://www.w3.org/1999/xlink" id="Слой_1" data-name="Слой 1" viewBox="0 0 608.12 883.64"><defs><style>.cls-1{fill:none;}.cls-2{clip-path:url(#clip-path);}.cls-3,.cls-5,.cls-6{fill:#fff;}.cls-4,.cls-5{stroke:#000;stroke-miterlimit:10;}.cls-6{font-size:392.19px;font-family:SymbolMT, Symbol;}</style><clipPath id="clip-path" transform="translate(-650.28 -174.91)"><circle class="cls-1" cx="960.5" cy="520.5" r="424.5"></circle></clipPath></defs><g class="cls-2"><polygon class="cls-3" points="204.5 472.45 277.69 690.39 354.13 698.53 415.94 472.45 204.5 472.45"></polygon><path class="cls-4" d="M842.58,596.84s24.4-41.5,24.4-61.57c0,0-27.65-30.79-32.53-60.24s-8.13-69.6-8.13-69.6-14.64-2.68-14.64-21.42-4.88-42.83,0-49.52,16.27,0,16.27,0-6.51-69.6,3.25-92.36,60.18-47.73,60.18-47.73c4.15-5.34,84.35-20.52,105.71-8.13,35.79,0,81.51,32.75,91.27,55.5s3.25,92.36,3.25,92.36,11.39-6.69,16.27,0,0,30.79,0,49.52-14.64,21.42-14.64,21.42-3.25,40.16-8.13,69.6-32.53,60.24-32.53,60.24c0,20.07,24.39,61.57,24.39,61.57L959.69,653.05Z" transform="translate(-650.28 -174.91)"></path><path d="M842.58,596.84s-187,62.72-191.92,83.86S687.26,954.76,780,1013.31s220.78,43.51,220.78,43.51Z" transform="translate(-650.28 -174.91)"></path><path d="M1066.16,590.69s187,62.73,191.92,83.87-45.48,260.68-105.66,329-236.24,53.67-236.24,53.67Z" transform="translate(-650.28 -174.91)"></path><polygon class="cls-5" points="309.41 478.14 426.51 409.83 420 512.3 309.41 478.14"></polygon><polygon class="cls-5" points="309.87 477.34 192.77 409.03 199.27 511.49 309.87 477.34"></polygon><polygon points="278 487.18 310.22 527.75 336.77 486.6 308.56 477.74 278 487.18"></polygon><polygon points="310.22 487.09 269.56 652.99 306.97 766.84 344.38 652.99 310.22 487.09"></polygon></g><text class="cls-6" transform="translate(210.8 345.13) scale(1.26 1)">?</text></svg> 